<svg width="14" height="14" viewBox="0 0 14 14" fill="none" xmlns="http://www.w3.org/2000/svg">
<path d="M11.2141 6.85466L4.17031 1.3531C4.15191 1.33861 4.12979 1.32961 4.1065 1.32712C4.0832 1.32463 4.05968 1.32877 4.03863 1.33905C4.01758 1.34933 3.99986 1.36534 3.9875 1.38523C3.97514 1.40513 3.96864 1.42811 3.96875 1.45154V2.65935C3.96875 2.73591 4.00469 2.80935 4.06406 2.85623L9.68906 7.24841L4.06406 11.6406C4.00313 11.6875 3.96875 11.7609 3.96875 11.8375V13.0453C3.96875 13.15 4.08906 13.2078 4.17031 13.1437L11.2141 7.64216C11.2739 7.59546 11.3224 7.53573 11.3557 7.4675C11.389 7.39927 11.4063 7.32434 11.4063 7.24841C11.4063 7.17249 11.389 7.09756 11.3557 7.02933C11.3224 6.9611 11.2739 6.90136 11.2141 6.85466Z" fill="white"/>
</svg>
